<?xml version="1.0" encoding="UTF-8" standalone="no"?>
<svg
   xmlns:dc="http://purl.org/dc/elements/1.1/"
   xmlns:cc="http://creativecommons.org/ns#"
   xmlns:rdf="http://www.w3.org/1999/02/22-rdf-syntax-ns#"
   xmlns:svg="http://www.w3.org/2000/svg"
   xmlns="http://www.w3.org/2000/svg"
   xmlns:sodipodi="http://sodipodi.sourceforge.net/DTD/sodipodi-0.dtd"
   xmlns:inkscape="http://www.inkscape.org/namespaces/inkscape"
   id="Layer_5"
   enable-background="new 0 0 64 64"
   height="496"
   viewBox="0 0 62 62"
   width="496"
   version="1.1"
   sodipodi:docname="rocket.svg"
   inkscape:version="1.0.1 (3bc2e813f5, 2020-09-07)">
  <metadata
     id="metadata1091">
    <rdf:RDF>
      <cc:Work
         rdf:about="">
        <dc:format>image/svg+xml</dc:format>
        <dc:type
           rdf:resource="http://purl.org/dc/dcmitype/StillImage" />
        <dc:title></dc:title>
      </cc:Work>
    </rdf:RDF>
  </metadata>
  <defs
     id="defs1089" />
  <sodipodi:namedview
     pagecolor="#ffffff"
     bordercolor="#666666"
     borderopacity="1"
     objecttolerance="10"
     gridtolerance="10"
     guidetolerance="10"
     inkscape:pageopacity="0"
     inkscape:pageshadow="2"
     inkscape:window-width="1916"
     inkscape:window-height="1161"
     id="namedview1087"
     showgrid="false"
     fit-margin-top="0"
     fit-margin-left="0"
     fit-margin-right="0"
     fit-margin-bottom="0"
     inkscape:zoom="1.4355469"
     inkscape:cx="112.51156"
     inkscape:cy="248"
     inkscape:window-x="1920"
     inkscape:window-y="18"
     inkscape:window-maximized="0"
     inkscape:current-layer="Layer_5" />
  <g
     id="g1663"
     transform="translate(-1,-1)">
    <path
       d="M 16.586,37 27,47.414 31.414,43 21,32.586 Z M 21,35.414 22.586,37 21,38.586 19.414,37 Z m 3,3 L 25.586,40 24,41.586 22.414,40 Z M 27,44.586 25.414,43 27,41.414 28.586,43 Z"
       id="path1068" />
    <path
       d="m 46.965,16.915 c 0.146,0.306 0.032,2.191 -1.914,4.137 C 43.614,22.489 42.108,23 41.255,23 v 2 c 0.628,0 2.859,-0.183 5.21,-2.534 1.14,-1.14 1.97,-2.494 2.338,-3.814 0.376,-1.348 0.24,-2.472 -0.372,-3.084 z"
       id="path1070" />
    <path
       d="m 45.216,11.138 c -2.305,0.406 -4.617,1.674 -6.511,3.568 -4.003,4.003 -4.885,9.635 -1.966,12.555 1.144,1.145 2.707,1.741 4.499,1.741 0.499,0 1.015,-0.046 1.545,-0.14 2.304,-0.406 4.617,-1.674 6.511,-3.568 4.003,-4.003 4.885,-9.635 1.966,-12.555 -1.462,-1.463 -3.609,-2.032 -6.044,-1.601 z M 47.88,23.88 c -1.607,1.607 -3.541,2.677 -5.444,3.013 -1.777,0.315 -3.294,-0.059 -4.282,-1.046 -2.139,-2.14 -1.257,-6.503 1.966,-9.727 1.607,-1.607 3.54,-2.677 5.444,-3.013 0.41,-0.073 0.807,-0.108 1.187,-0.108 1.262,0 2.336,0.396 3.096,1.154 2.138,2.14 1.257,6.503 -1.967,9.727 z"
       id="path1072" />
    <path
       d="m 18,49 c 0,-0.801 -0.312,-1.555 -0.879,-2.121 -1.133,-1.133 -3.109,-1.133 -4.242,0 l -11,11 C 1.312,58.445 1,59.199 1,60 1,60.801 1.312,61.555 1.879,62.121 2.445,62.688 3.199,63 4,63 4.801,63 5.555,62.688 6.121,62.121 l 11,-11 C 17.688,50.555 18,49.801 18,49 Z m -2.293,0.707 -11,11 c -0.384,0.383 -1.03,0.383 -1.414,0 C 3.102,60.516 3,60.271 3,60 3,59.729 3.102,59.484 3.293,59.293 l 11,-11 C 14.485,48.102 14.729,48 15,48 c 0.271,0 0.515,0.102 0.707,0.293 C 15.898,48.484 16,48.729 16,49 c 0,0.271 -0.102,0.516 -0.293,0.707 z"
       id="path1074" />
    <path
       d="m 4,52 c 0.801,0 1.555,-0.312 2.121,-0.879 l 6,-6 C 12.688,44.555 13,43.801 13,43 c 0,-0.801 -0.312,-1.555 -0.879,-2.121 -1.133,-1.133 -3.109,-1.133 -4.242,0 l -6,6 C 1.312,47.445 1,48.199 1,49 1,49.801 1.312,50.555 1.879,51.121 2.445,51.688 3.199,52 4,52 Z m -0.707,-3.707 6,-6 C 9.485,42.102 9.729,42 10,42 c 0.271,0 0.515,0.102 0.707,0.293 C 10.898,42.484 11,42.729 11,43 c 0,0.271 -0.102,0.516 -0.293,0.707 l -6,6 c -0.384,0.383 -1.03,0.383 -1.414,0 C 3.102,49.516 3,49.271 3,49 3,48.729 3.102,48.484 3.293,48.293 Z"
       id="path1076" />
    <path
       d="m 18.879,51.879 -6,6 C 12.312,58.445 12,59.199 12,60 c 0,0.801 0.312,1.555 0.879,2.121 C 13.445,62.688 14.199,63 15,63 c 0.801,0 1.555,-0.312 2.121,-0.879 l 6,-6 C 23.688,55.555 24,54.801 24,54 c 0,-0.801 -0.312,-1.555 -0.879,-2.121 -1.133,-1.133 -3.109,-1.133 -4.242,0 z m 2.828,2.828 -6,6 c -0.384,0.383 -1.03,0.383 -1.414,0 C 14.102,60.516 14,60.271 14,60 c 0,-0.271 0.102,-0.516 0.293,-0.707 l 6,-6 C 20.485,53.102 20.729,53 21,53 c 0.271,0 0.515,0.102 0.707,0.293 C 21.898,53.484 22,53.729 22,54 c 0,0.271 -0.102,0.516 -0.293,0.707 z"
       id="path1078" />
    <path
       d="m 34.018,14.884 h 2 v 2 h -2 z"
       transform="matrix(0.803,-0.596,0.596,0.803,-2.566,24.011)"
       id="path1080" />
    <path
       d="m 30.807,17.27 h 2 v 2 h -2 z"
       transform="matrix(0.803,-0.596,0.596,0.803,-4.621,22.567)"
       id="path1082" />
    <path
       d="M 61.322,1 C 51.873,1 42.492,4.103 34.907,9.737 L 31.009,12.633 8.637,9.949 3.586,15 l 10.33,10.33 -3.443,2.557 5.187,5.187 -4,5 14.266,14.266 5,-4 5.197,5.197 2.936,-4.064 9.941,9.941 5.051,-5.051 -2.64,-21.993 3.202,-4.434 C 60.1,20.339 63,11.371 63,2 V 1 Z M 40.07,44.656 19.264,23.85 27,18.103 v 6.311 L 39.586,37 H 45.6 Z M 6.414,15 9,12.414 l 5.293,5.293 1.414,-1.414 -3.956,-3.956 16.922,2.031 -8.545,6.347 -2.422,-2.422 -1.414,1.414 2.213,2.214 -2.967,2.204 z m 29.463,35.463 -4.803,-4.803 -5,4 -11.734,-11.734 4,-5 -4.813,-4.813 4.115,-3.057 21.243,21.243 z M 51.663,51.249 47.707,47.293 46.293,48.707 51.586,54 49,56.586 l -8.755,-8.755 2.169,-3.003 1.879,1.88 1.414,-1.414 -2.107,-2.109 6.085,-8.424 z M 52.993,26.764 47.044,35 h -6.63 L 29,23.586 v -6.969 l 7.1,-5.274 C 39.905,8.517 44.185,6.365 48.697,4.952 l 10.377,9.685 c -1.347,4.305 -3.383,8.391 -6.081,12.127 z M 59.693,12.479 50.941,4.31 C 54.22,3.476 57.598,3.029 60.988,3.001 60.914,6.23 60.477,9.404 59.693,12.479 Z"
       id="path1084" />
  </g>
</svg>
